<svg width="196" height="235" viewBox="0 0 196 235" fill="none" xmlns="http://www.w3.org/2000/svg">
<path d="M149.76 73.1202C149.505 66.0659 148.234 59.1737 146.357 54.2194V54.2107C132.95 11.4548 108.411 11.1348 75.1691 11.1348C33.7724 11.1348 0.214844 44.6923 0.214844 86.089C0.214844 127.486 16.2571 152.533 60.8938 152.49C99.5985 152.45 141.214 118.603 147.423 91.2143C149.054 86.5099 150.014 80.1395 149.764 73.1202H149.76Z" fill="#3B3230"/>
<path d="M39.0704 168.106C39.0704 168.106 10.5373 210.31 11.3572 224.318L12.1814 238.326H195.091C195.091 238.326 179.215 165.822 153.484 146.457C153.484 146.457 150.02 133.86 146.833 131.177C143.645 128.494 39.0704 168.106 39.0704 168.106Z" fill="#F58223"/>
<path d="M23.7233 160.775C24.1004 161.477 26.788 166.4 27.1738 167.093C30.4927 173.025 41.7166 170.925 58.0701 168.627C76.949 165.979 151.859 149.538 146.835 131.181C146.835 131.181 150.478 128.559 145.511 118.62C145.511 118.62 145.774 115.893 142.231 116.419C138.689 116.945 19.1593 148.942 16.8049 151.261C14.6215 153.414 15.1345 158.166 17.9185 159.28C20.6982 160.394 21.5575 156.733 22.9254 159.28L23.7277 160.775H23.7233Z" fill="#DBDAD2"/>
<path d="M21.4373 142.773C21.4373 142.773 19.1925 150.634 22.3142 152.813C28.5267 157.149 138.674 129.449 142.23 118.286L137.701 111.092L21.4329 142.768L21.4373 142.773Z" fill="#F58223"/>
<path d="M16.3407 31.1705C15.021 32.7927 15.5296 35.2216 17.3798 36.2037C28.7264 42.2234 63.8886 62.1019 72.6836 81.7612C83.2147 105.305 86.3144 108.712 98.0863 108.4C108.933 108.115 129.776 100.991 131.043 82.4188C131.302 78.6264 130.008 74.8953 127.317 72.2121C126.076 70.9757 124.449 69.6868 122.34 68.5512C120.227 67.4157 119.241 64.921 120.03 62.6587C123.073 53.9295 129.798 33.88 131.214 23.2788C131.666 19.8853 130.065 16.5401 127.132 14.7732C112.274 5.83356 58.645 -20.7398 16.3451 31.1705H16.3407Z" fill="#DBDAD2"/>
<path d="M0.21251 84.6244C0.21251 84.6244 0.221275 78.7538 1.57164 77.6182C3.75503 75.7812 38.5972 83.2696 44.801 85.5539C51.0048 87.8381 58.5064 89.8461 62.0051 88.8333C65.5038 87.8249 72.6984 84.0237 72.6809 81.7614C72.6634 79.3851 67.4723 41.0224 19.2887 32.8237C19.0651 32.7842 18.8327 32.85 18.6661 33.0078C16.2197 35.3052 -2.09803 53.7369 0.208122 84.6244H0.21251Z" fill="#F58223"/>
<mask id="mask0_62_644" style="mask-type:luminance" maskUnits="userSpaceOnUse" x="0" y="32" width="73" height="58">
<path d="M0.204698 84.6244C0.204698 84.6244 0.213463 78.7538 1.56383 77.6182C3.74722 75.7812 38.5894 83.2696 44.7932 85.5539C50.997 87.8381 58.4986 89.8461 61.9973 88.8333C65.4959 87.8249 72.6906 84.0237 72.6731 81.7614C72.6555 79.3851 67.4645 41.0224 19.2809 32.8237C19.0573 32.7842 18.8249 32.85 18.6583 33.0078C16.2118 35.3052 -2.10584 53.7369 0.200309 84.6244H0.204698Z" fill="white"/>
</mask>
<g mask="url(#mask0_62_644)">
<path d="M-9.06999 88.8839C-9.06999 88.8839 -9.35059 83.079 -7.96953 81.926C-5.73791 80.0583 31.6516 86.6347 38.3596 88.7436C45.0676 90.8524 59.2158 100.761 61.9647 97.8805C64.9504 94.7501 67.9274 86.5733 67.8002 84.333C67.6687 81.983 60.6275 42.5372 10.3964 36.2984C10.1552 36.2677 8.67334 37.6575 8.50235 37.8198C6.01645 40.1478 -13.0509 58.4129 -9.07876 88.8795L-9.06999 88.8839Z" fill="#DBDAD2"/>
</g>
<path d="M114.257 176.878C120.504 175.62 137.752 172.581 150.69 174.375C152.001 174.554 152.997 175.646 153.08 176.966L154.158 193.727C154.189 194.227 154.088 194.722 153.865 195.165C151.909 199.019 142.014 217.85 135.117 218.292C128.234 218.735 116.072 201.764 113.608 198.221C113.319 197.804 113.148 197.318 113.117 196.809L112.025 179.794C111.937 178.399 112.889 177.15 114.257 176.874V176.878Z" fill="#FFFEF2"/>
<path d="M145.114 180.598L120.249 182.193C119.065 182.269 118.167 183.29 118.243 184.474L119.033 196.791C119.109 197.975 120.13 198.873 121.314 198.797L146.179 197.202C147.363 197.126 148.262 196.105 148.186 194.921L147.396 182.604C147.32 181.42 146.298 180.522 145.114 180.598Z" fill="white"/>
<mask id="mask1_62_644" style="mask-type:luminance" maskUnits="userSpaceOnUse" x="118" y="180" width="31" height="19">
<path d="M145.114 180.598L120.249 182.193C119.065 182.269 118.167 183.29 118.243 184.474L119.033 196.791C119.109 197.975 120.13 198.873 121.314 198.797L146.179 197.202C147.363 197.126 148.262 196.105 148.186 194.921L147.396 182.604C147.32 181.42 146.298 180.522 145.114 180.598Z" fill="white"/>
</mask>
<g mask="url(#mask1_62_644)">
<path d="M133.091 180.753L118.07 181.717L118.676 191.154L133.696 190.191L133.091 180.753Z" fill="#1D376C"/>
<path d="M147.02 180.851L133.172 181.739L133.241 182.82L147.089 181.932L147.02 180.851Z" fill="#CF2027"/>
<path d="M147.141 182.734L133.293 183.622L133.362 184.703L147.21 183.815L147.141 182.734Z" fill="#CF2027"/>
<path d="M147.258 184.578L133.41 185.466L133.479 186.547L147.327 185.658L147.258 184.578Z" fill="#CF2027"/>
<path d="M147.371 186.346L133.523 187.234L133.593 188.315L147.441 187.427L147.371 186.346Z" fill="#CF2027"/>
<path d="M147.496 188.246L133.648 189.134L133.718 190.214L147.566 189.326L147.496 188.246Z" fill="#CF2027"/>
<path d="M147.616 190.214L118.953 192.053L119.022 193.133L147.685 191.295L147.616 190.214Z" fill="#CF2027"/>
<path d="M147.76 192.09L119.098 193.929L119.167 195.009L147.83 193.171L147.76 192.09Z" fill="#CF2027"/>
<path d="M147.882 193.968L119.219 195.807L119.288 196.887L147.951 195.049L147.882 193.968Z" fill="#CF2027"/>
<path d="M148.018 196.004L119.355 197.843L119.425 198.923L148.088 197.085L148.018 196.004Z" fill="#CF2027"/>
<path d="M119.771 183.245L119.925 183.631L120.341 183.605L120.021 183.872L120.175 184.258L119.824 184.034L119.499 184.302L119.605 183.898L119.254 183.675L119.67 183.648L119.771 183.245Z" fill="white"/>
<path d="M121.174 183.153L121.327 183.544L121.744 183.513L121.424 183.78L121.577 184.166L121.226 183.947L120.906 184.21L121.007 183.807L120.656 183.583L121.073 183.557L121.174 183.153Z" fill="white"/>
<path d="M122.573 183.065L122.726 183.451L123.138 183.425L122.818 183.692L122.971 184.078L122.621 183.855L122.301 184.122L122.406 183.719L122.051 183.495L122.467 183.469L122.573 183.065Z" fill="white"/>
<path d="M123.974 182.974L124.128 183.364L124.544 183.333L124.224 183.601L124.378 183.986L124.027 183.767L123.703 184.03L123.808 183.627L123.457 183.403L123.869 183.377L123.974 182.974Z" fill="white"/>
<path d="M125.369 182.886L125.522 183.272L125.939 183.245L125.619 183.513L125.772 183.898L125.422 183.675L125.101 183.942L125.202 183.539L124.852 183.315L125.268 183.289L125.369 182.886Z" fill="white"/>
<path d="M126.772 182.795L126.925 183.185L127.337 183.154L127.017 183.422L127.171 183.808L126.82 183.589L126.5 183.852L126.605 183.448L126.25 183.225L126.667 183.198L126.772 182.795Z" fill="white"/>
<path d="M128.17 182.707L128.323 183.093L128.74 183.067L128.42 183.334L128.573 183.72L128.218 183.496L127.898 183.764L128.003 183.36L127.652 183.137L128.064 183.11L128.17 182.707Z" fill="white"/>
<path d="M129.568 182.614L129.722 183.004L130.138 182.974L129.818 183.241L129.971 183.627L129.621 183.408L129.301 183.671L129.402 183.268L129.051 183.044L129.467 183.018L129.568 182.614Z" fill="white"/>
<path d="M130.971 182.527L131.124 182.913L131.537 182.887L131.216 183.154L131.37 183.54L131.019 183.317L130.699 183.584L130.8 183.181L130.449 182.957L130.866 182.931L130.971 182.527Z" fill="white"/>
<path d="M132.369 182.435L132.522 182.825L132.939 182.794L132.619 183.061L132.772 183.447L132.417 183.228L132.097 183.491L132.202 183.088L131.852 182.864L132.264 182.838L132.369 182.435Z" fill="white"/>
<path d="M119.858 184.515L120.011 184.905L120.423 184.879L120.103 185.142L120.257 185.527L119.906 185.308L119.586 185.571L119.691 185.168L119.336 184.944L119.752 184.918L119.858 184.515Z" fill="white"/>
<path d="M121.256 184.427L121.409 184.813L121.826 184.786L121.506 185.054L121.659 185.44L121.304 185.216L120.984 185.483L121.089 185.08L120.738 184.856L121.15 184.83L121.256 184.427Z" fill="white"/>
<path d="M122.654 184.335L122.808 184.725L123.224 184.699L122.904 184.962L123.057 185.348L122.707 185.129L122.387 185.392L122.487 184.988L122.137 184.765L122.553 184.738L122.654 184.335Z" fill="white"/>
<path d="M124.061 184.247L124.214 184.633L124.626 184.607L124.306 184.874L124.46 185.26L124.109 185.036L123.789 185.304L123.894 184.9L123.539 184.677L123.956 184.65L124.061 184.247Z" fill="white"/>
<path d="M125.455 184.155L125.608 184.545L126.025 184.519L125.705 184.782L125.858 185.168L125.503 184.949L125.183 185.212L125.288 184.809L124.938 184.585L125.35 184.559L125.455 184.155Z" fill="white"/>
<path d="M126.857 184.067L127.011 184.453L127.427 184.427L127.107 184.694L127.261 185.08L126.91 184.857L126.59 185.124L126.691 184.721L126.34 184.497L126.756 184.471L126.857 184.067Z" fill="white"/>
<path d="M128.252 183.976L128.41 184.366L128.822 184.339L128.502 184.603L128.655 184.988L128.304 184.769L127.984 185.032L128.085 184.629L127.734 184.405L128.151 184.379L128.252 183.976Z" fill="white"/>
<path d="M129.658 183.888L129.811 184.274L130.228 184.247L129.908 184.515L130.061 184.9L129.706 184.677L129.386 184.944L129.491 184.541L129.141 184.317L129.553 184.291L129.658 183.888Z" fill="white"/>
<path d="M131.056 183.796L131.21 184.186L131.626 184.155L131.306 184.423L131.46 184.809L131.109 184.589L130.789 184.853L130.89 184.449L130.539 184.226L130.956 184.199L131.056 183.796Z" fill="white"/>
<path d="M132.451 183.708L132.609 184.094L133.021 184.067L132.701 184.335L132.854 184.721L132.504 184.497L132.184 184.765L132.284 184.361L131.934 184.138L132.35 184.111L132.451 183.708Z" fill="white"/>
<path d="M119.944 185.815L120.097 186.206L120.514 186.179L120.189 186.442L120.347 186.828L119.992 186.609L119.672 186.872L119.777 186.469L119.422 186.245L119.838 186.219L119.944 185.815Z" fill="white"/>
<path d="M121.342 185.728L121.495 186.113L121.912 186.087L121.591 186.354L121.745 186.74L121.394 186.517L121.07 186.784L121.175 186.381L120.824 186.157L121.236 186.131L121.342 185.728Z" fill="white"/>
<path d="M122.74 185.636L122.893 186.026L123.31 186L122.99 186.263L123.143 186.649L122.793 186.429L122.473 186.692L122.573 186.289L122.223 186.065L122.639 186.039L122.74 185.636Z" fill="white"/>
<path d="M124.143 185.549L124.296 185.935L124.708 185.908L124.388 186.176L124.542 186.562L124.191 186.338L123.871 186.605L123.976 186.202L123.621 185.978L124.038 185.952L124.143 185.549Z" fill="white"/>
<path d="M125.541 185.455L125.694 185.845L126.111 185.819L125.791 186.082L125.944 186.468L125.593 186.249L125.269 186.512L125.374 186.108L125.023 185.885L125.436 185.858L125.541 185.455Z" fill="white"/>
<path d="M126.943 185.368L127.097 185.754L127.513 185.728L127.193 185.995L127.346 186.381L126.996 186.157L126.676 186.425L126.777 186.021L126.426 185.798L126.842 185.772L126.943 185.368Z" fill="white"/>
<path d="M128.342 185.276L128.495 185.667L128.908 185.636L128.588 185.903L128.741 186.289L128.39 186.07L128.07 186.333L128.175 185.93L127.82 185.706L128.237 185.68L128.342 185.276Z" fill="white"/>
<path d="M129.744 185.188L129.897 185.574L130.314 185.548L129.994 185.815L130.147 186.201L129.792 185.978L129.472 186.245L129.577 185.842L129.227 185.618L129.639 185.592L129.744 185.188Z" fill="white"/>
<path d="M131.142 185.097L131.296 185.487L131.712 185.456L131.392 185.724L131.546 186.109L131.195 185.89L130.875 186.153L130.976 185.75L130.625 185.526L131.042 185.5L131.142 185.097Z" fill="white"/>
<path d="M132.545 185.009L132.699 185.395L133.111 185.368L132.791 185.636L132.944 186.022L132.593 185.798L132.273 186.065L132.374 185.662L132.023 185.438L132.44 185.412L132.545 185.009Z" fill="white"/>
<path d="M120.025 187.141L120.179 187.531L120.595 187.505L120.275 187.768L120.429 188.153L120.078 187.934L119.758 188.197L119.859 187.794L119.508 187.575L119.924 187.544L120.025 187.141Z" fill="white"/>
<path d="M121.428 187.053L121.581 187.439L121.997 187.412L121.677 187.68L121.831 188.065L121.48 187.842L121.16 188.109L121.261 187.706L120.91 187.482L121.327 187.456L121.428 187.053Z" fill="white"/>
<path d="M122.826 186.961L122.98 187.351L123.396 187.325L123.072 187.588L123.23 187.974L122.875 187.755L122.555 188.018L122.66 187.614L122.305 187.395L122.721 187.364L122.826 186.961Z" fill="white"/>
<path d="M124.228 186.873L124.382 187.259L124.798 187.233L124.478 187.5L124.632 187.886L124.281 187.662L123.956 187.93L124.062 187.526L123.711 187.303L124.127 187.276L124.228 186.873Z" fill="white"/>
<path d="M125.623 186.781L125.776 187.171L126.193 187.145L125.873 187.408L126.026 187.794L125.675 187.575L125.355 187.838L125.456 187.435L125.105 187.211L125.522 187.185L125.623 186.781Z" fill="white"/>
<path d="M127.026 186.693L127.179 187.079L127.596 187.053L127.271 187.32L127.425 187.706L127.074 187.483L126.754 187.75L126.859 187.347L126.504 187.123L126.92 187.097L127.026 186.693Z" fill="white"/>
<path d="M128.424 186.602L128.577 186.992L128.994 186.965L128.674 187.228L128.827 187.614L128.476 187.395L128.152 187.658L128.257 187.255L127.906 187.031L128.318 187.005L128.424 186.602Z" fill="white"/>
<path d="M129.822 186.514L129.975 186.899L130.392 186.873L130.072 187.141L130.225 187.526L129.875 187.303L129.555 187.57L129.655 187.167L129.305 186.943L129.721 186.917L129.822 186.514Z" fill="white"/>
<path d="M131.229 186.422L131.382 186.812L131.794 186.786L131.474 187.049L131.628 187.435L131.277 187.215L130.957 187.479L131.062 187.075L130.707 186.852L131.124 186.825L131.229 186.422Z" fill="white"/>
<path d="M132.623 186.334L132.776 186.72L133.193 186.693L132.873 186.961L133.026 187.347L132.671 187.123L132.351 187.391L132.456 186.987L132.105 186.764L132.518 186.737L132.623 186.334Z" fill="white"/>
<path d="M120.115 188.5L120.268 188.89L120.685 188.86L120.365 189.127L120.518 189.513L120.168 189.294L119.843 189.557L119.948 189.153L119.598 188.93L120.01 188.903L120.115 188.5Z" fill="white"/>
<path d="M121.517 188.412L121.671 188.798L122.087 188.772L121.767 189.039L121.921 189.425L121.57 189.201L121.25 189.469L121.351 189.065L121 188.842L121.417 188.815L121.517 188.412Z" fill="white"/>
<path d="M122.916 188.32L123.07 188.71L123.482 188.68L123.162 188.947L123.315 189.333L122.964 189.114L122.644 189.377L122.75 188.974L122.395 188.75L122.811 188.724L122.916 188.32Z" fill="white"/>
<path d="M124.314 188.232L124.468 188.618L124.884 188.592L124.564 188.859L124.718 189.245L124.362 189.022L124.042 189.289L124.148 188.886L123.797 188.662L124.209 188.636L124.314 188.232Z" fill="white"/>
<path d="M125.713 188.141L125.866 188.531L126.283 188.5L125.963 188.768L126.116 189.153L125.765 188.934L125.445 189.197L125.546 188.794L125.195 188.57L125.612 188.544L125.713 188.141Z" fill="white"/>
<path d="M127.115 188.053L127.269 188.439L127.681 188.412L127.361 188.68L127.514 189.066L127.164 188.842L126.844 189.109L126.949 188.706L126.594 188.482L127.01 188.456L127.115 188.053Z" fill="white"/>
<path d="M128.513 187.961L128.667 188.351L129.083 188.32L128.763 188.588L128.917 188.974L128.562 188.755L128.242 189.018L128.347 188.614L127.996 188.391L128.408 188.364L128.513 187.961Z" fill="white"/>
<path d="M129.916 187.873L130.069 188.259L130.486 188.233L130.166 188.5L130.319 188.886L129.968 188.662L129.648 188.93L129.749 188.526L129.398 188.303L129.815 188.276L129.916 187.873Z" fill="white"/>
<path d="M131.314 187.781L131.472 188.171L131.884 188.141L131.564 188.408L131.718 188.794L131.367 188.575L131.047 188.838L131.148 188.435L130.797 188.211L131.213 188.185L131.314 187.781Z" fill="white"/>
<path d="M132.717 187.693L132.87 188.079L133.287 188.053L132.966 188.32L133.12 188.706L132.765 188.483L132.445 188.75L132.55 188.347L132.199 188.123L132.611 188.097L132.717 187.693Z" fill="white"/>
</g>
<path d="M145.114 180.598L120.249 182.193C119.065 182.269 118.167 183.29 118.243 184.474L119.033 196.791C119.109 197.975 120.13 198.873 121.314 198.797L146.179 197.202C147.363 197.126 148.262 196.105 148.186 194.921L147.396 182.604C147.32 181.42 146.298 180.522 145.114 180.598Z" stroke="#1B120A" stroke-width="0.758487" stroke-miterlimit="10"/>
</svg>
