<svg width="192" height="237" viewBox="0 0 192 237" fill="none" xmlns="http://www.w3.org/2000/svg">
<path d="M57.5735 166.42C57.5735 166.42 48.476 185.997 34.6898 199.779C20.9036 213.566 7.39302 230.934 8.21969 240.032H191.294C191.294 240.032 191.845 200.055 131.189 166.416C131.189 166.416 125.018 162.137 124.605 162.137C124.191 162.137 79.1588 167.635 57.5735 166.416V166.42Z" fill="#9091C7"/>
<mask id="mask0_62_613" style="mask-type:luminance" maskUnits="userSpaceOnUse" x="8" y="162" width="184" height="79">
<path d="M57.5696 166.42C57.5696 166.42 48.4721 185.997 34.6859 199.779C20.8997 213.566 7.38911 230.934 8.21578 240.032H191.29C191.29 240.032 191.841 200.055 131.185 166.416C131.185 166.416 125.014 162.137 124.601 162.137C124.187 162.137 79.1549 167.635 57.5696 166.416V166.42Z" fill="white"/>
</mask>
<g mask="url(#mask0_62_613)">
<path d="M67.1815 211.557H18.4414V217.272H67.1815V211.557Z" fill="white"/>
<path d="M184.517 211.557H135.777V217.272H184.517V211.557Z" fill="white"/>
<path d="M64.3834 222.816H9.53516V228.532H64.3834V222.816Z" fill="white"/>
<path d="M194.008 222.816H139.16V228.532H194.008V222.816Z" fill="white"/>
</g>
<path d="M71.6994 168.115C71.6994 168.115 69.52 210.664 52.4062 240.036H162.566C162.566 240.036 162.879 198.456 149.807 187.876C136.739 177.296 117.438 160.684 117.438 160.684L71.6994 168.115Z" fill="#DEB5D5"/>
<path d="M60.8103 161.882C60.8103 161.882 58.1883 159.644 57.3867 167.51C57.3867 167.51 91.038 175.576 106.912 172.599C122.785 169.623 125.169 163.151 124.773 162.116C124.376 161.08 117.892 156.033 117.099 155.903C116.306 155.774 114.51 155.903 114.51 155.903L60.8103 161.886V161.882Z" fill="#E5E0F0"/>
<path d="M56.5651 137.875C56.5651 137.875 16.313 130.66 23.9075 89.6482C23.9075 89.6482 27.3269 72.9394 17.0728 64.965C6.81879 56.9906 -1.91135 59.2702 0.364082 45.6009C0.364082 45.6009 7.95859 50.9158 8.71846 47.8805C9.47832 44.8452 2.64366 24.3371 5.29903 22.4375C7.95856 20.5378 16.6887 8.00831 17.4486 14.0831C18.2085 20.1578 14.7891 28.8921 25.423 36.1067C25.423 36.1067 30.0114 37.3593 28.2788 33.4054C26.5461 29.4516 25.8865 21.8028 29.4478 22.07C33.0092 22.3372 33.0091 26.9466 33.0091 26.9466C33.0091 26.9466 36.1739 25.3642 37.6227 28.6584C39.0714 31.9525 41.5765 35.1172 47.9059 34.7206C47.9059 34.7206 52.39 31.6895 54.7615 31.5558L55.1581 28.2617C55.1581 28.2617 51.5967 19.6944 57.6631 20.2204C63.7254 20.7465 57.6631 28.2617 57.6631 28.2617L57.7967 31.0298C57.7967 31.0298 62.6732 32.0861 63.3329 33.0088C63.9926 33.9315 67.817 40.524 72.5599 41.4467C77.0899 42.3276 98.2367 49.7133 101.535 96.0569C101.819 100.057 101.543 104.077 100.704 107.994C99.7105 112.615 98.5415 119.158 99.1427 122.03C100.128 126.702 100.617 142.684 115.125 157.932C115.125 157.932 117.918 159.969 117.438 160.687C116.958 161.406 104.758 176.24 60.736 161.886C60.736 161.886 63.8506 146.893 58.7486 139.812C58.7486 139.812 58.59 139.023 56.5651 137.875Z" fill="#A2DCEB"/>
<path d="M20.4764 11.4857C20.4764 11.4857 17.5622 2.45911 23.1944 3.12713C28.551 3.75757 20.4764 11.4857 20.4764 11.4857Z" fill="#A2DCEB"/>
<path d="M29.1558 8.66757C29.1558 8.66757 29.5774 5.77842 29.1975 3.82864C28.8176 1.88305 29.6819 0.0710105 31.4855 0.597073C33.4227 1.16071 33.406 5.28574 29.1558 8.66757Z" fill="#A2DCEB"/>
</svg>
