<svg width="154" height="236" viewBox="0 0 154 236" fill="none" xmlns="http://www.w3.org/2000/svg">
<path d="M14.8198 61.3584V2.58336L26.7774 12.5867L31.7612 2.58336L39.2347 10.0881L45.2135 0L54.1816 11.3374L62.6501 0L67.6339 10.918L78.5965 0L82.5809 13.0016L89.5546 4.24759L96.5284 15.9196L106.496 5.91632L109.985 18.4227L121.943 9.25372V23.8437L133.9 15.5091L114.469 112.214C114.469 112.214 122.161 111.643 122.161 122.641C122.161 133.639 111.913 131.399 111.913 131.399L115.478 159.54C115.478 159.54 105.43 177.432 65.8938 169.03C65.8938 169.03 66.2106 159.455 65.3183 158.268C64.4304 157.077 51.982 156.93 50.2062 149.791C50.2062 149.791 3.64755 150.871 3.05859 138.012C3.05859 138.012 8.3815 119.714 8.08256 115.507C8.08256 115.507 2.83104 106.422 11.9777 104.87C11.9777 104.87 40.2074 106.19 41.1577 105.597C42.1081 105.003 7.70332 76.3589 7.70332 76.3589C7.70332 76.3589 3.85725 66.7036 13.7133 65.9004L14.8154 61.3673L14.8198 61.3584Z" fill="#F9D308"/>
<path d="M4.5715 80.0254C0.542517 85.6116 -4.57513 96.6857 7.70368 106.957C7.70368 106.957 10.3941 105.007 12.4019 105.092C41.234 106.296 41.1581 105.596 41.1581 105.596L43.3622 80.7616C43.3622 80.7616 35.9155 72.1504 25.0778 72.1504C20.1431 72.1504 16.0963 73.0249 13.1515 73.9753C9.55976 75.1353 6.55252 77.2681 4.56257 80.0254H4.5715Z" fill="#F6F5F0"/>
<path d="M60.517 114.77C74.3065 114.77 85.4851 105.419 85.4851 93.8846C85.4851 82.3498 74.3065 72.999 60.517 72.999C46.7275 72.999 35.5488 82.3498 35.5488 93.8846C35.5488 105.419 46.7275 114.77 60.517 114.77Z" fill="#F6F5F0"/>
<path d="M50.3625 199.269C50.3625 199.269 45.5883 217.776 45.5393 221.983C45.4946 226.191 53.0886 220.98 53.0886 220.98L63.1365 203.552L50.3625 199.269Z" fill="#F9D308"/>
<path d="M153.988 209.65C153.988 182.857 122.278 168.945 122.278 168.945C123.193 160.057 115.487 159.535 115.487 159.535C103.017 177.253 65.9037 169.025 65.9037 169.025C64.4536 171.345 63.008 174.652 61.6293 178.458C57.7253 181.264 46.8832 189.773 46.0845 198.174C46.0845 198.174 48.0031 200.499 55.1062 201.03C52.9824 209.802 51.6305 216.744 51.6305 216.744C42.9657 221.143 35.5547 238.999 35.5547 238.999H153.984" fill="#F26322"/>
</svg>
