<svg width="205" height="236" viewBox="0 0 205 236" fill="none" xmlns="http://www.w3.org/2000/svg">
<path d="M40.8634 115.819C40.8634 115.819 24.5432 121.446 16.1277 153.915C7.71214 186.384 1.99712 213.444 1.99712 213.444L0 239H204.33V173.539C204.33 156.779 196.015 141.108 182.127 131.725C170.416 123.816 157.592 115.438 153.221 113.63L146.304 100.701L138.789 94.6885H84.9758L40.8676 115.815L40.8634 115.819Z" fill="#231F20"/>
<path d="M99.5078 106.566L139.446 98.7578L140.287 112.147L137.583 157.319L130.214 160.036L99.5078 106.566Z" fill="white"/>
<path d="M119.34 115.531L105.641 110.867V121.661L108.835 132.722L122.681 126.341C122.681 126.341 127.253 127.183 129.891 125.332L141.844 129.109L141.371 110.143C141.371 110.143 132.859 113.559 130.104 113.362C128.831 113.27 128.304 112.579 127.374 112.579C126.135 112.579 124.908 112.831 123.744 113.253L119.344 115.535L119.34 115.531Z" fill="#231F20"/>
<path d="M42.1878 120.078C42.1878 120.078 32.8428 126.417 36.4686 137.056C40.0944 147.694 44.5199 164.756 48.0871 165.036C51.6542 165.317 65.3158 146.459 66.9361 145.827C69.712 144.743 72.5506 131.441 70.9638 129.398C69.377 127.359 42.192 120.078 42.192 120.078H42.1878Z" fill="white"/>
<path d="M149.619 39.1848C148.497 38.0041 146.885 49.7397 146.11 56.0702L145.315 42.0737C145.315 42.0737 136.066 0.85858 102.894 19.155C82.2819 30.5222 80.377 50.5771 81.8884 64.1382C79.2675 57.9878 76.4288 52.3105 76.4288 52.3105C76.4288 52.3105 70.9818 50.0412 73.0249 55.8274C75.0681 61.6136 74.842 67.0564 78.0156 70.8037C81.1934 74.5467 80.7371 79.5876 85.2756 79.3364C86.5233 83.8791 92.0959 101.69 104.497 109.025C118.77 117.47 124.803 115.661 124.803 115.661C124.803 115.661 132.444 111.642 136.464 103.8C140.483 95.9581 147.119 89.7281 146.717 81.8862C146.399 75.6646 146.596 70.0793 146.692 68.0362C148.966 68.9949 148.463 62.2374 148.865 60.7637C149.267 59.2899 151.143 40.7967 149.614 39.1889L149.619 39.1848Z" fill="#FAD8BA"/>
<path d="M144.889 49.6181L146.187 57.3637C146.187 57.3637 149.867 37.1371 149.612 34.0431C149.352 30.949 148.36 2.16459 114.12 0C114.12 0 101.024 0.238649 98.3819 1.44027C95.74 2.64189 82.6311 7.92984 81.4965 12.2548C81.4965 12.2548 68.8271 18.2629 72.432 36.5259C72.432 36.5259 70.2507 45.8039 72.9093 49.6725L83.6611 67.0687C83.6611 67.0687 82.8153 60.5457 83.4182 59.5785C84.0211 58.6113 84.9882 41.6966 84.9882 41.3365C84.9882 40.9764 91.6747 34.579 91.6328 31.3091C91.5951 28.0392 97.4316 27.8047 97.4316 27.8047C97.4316 27.8047 94.8943 34.692 106.253 37.9536C117.612 41.2151 123.528 40.7336 123.528 40.7336C123.528 40.7336 126.065 33.2434 131.018 31.6733C135.971 30.1033 134.644 27.4446 134.644 27.4446C134.644 27.4446 138.63 29.6176 139.476 35.6592C140.321 41.7008 142.574 47.6586 144.889 49.6181Z" fill="#4D3100"/>
<path d="M92.5321 115.82C109.334 110.943 102.798 84.528 102.798 84.528C79.4608 77.2931 50.7601 84.528 50.7601 84.528C45.8615 122.331 76.0612 119.492 76.0612 119.492L77.4051 154.071L75.8141 156.989C67.2144 157.37 60.7457 159.007 60.7457 160.971C60.7457 163.215 69.1948 165.032 79.6158 165.032C90.0368 165.032 98.4857 163.215 98.4857 160.971C98.4857 159.066 92.3939 157.467 84.171 157.027L82.2576 154.54V120.237L92.5237 115.824L92.5321 115.82Z" fill="#C4E4D0"/>
<path d="M42.8913 92.7332C42.8913 92.7332 35.7318 78.7576 43.176 77.2713C50.6201 75.7808 51.6291 84.3219 51.6291 84.3219L50.7624 84.5271C50.7624 84.5271 48.8114 92.5909 51.8385 103.234C51.8385 103.234 62.6405 94.3829 67.1246 99.541C71.6087 104.699 63.0885 110.381 60.0237 111.051C60.0237 111.051 72.9569 112.097 82.4484 110.155C82.4484 110.155 86.9324 109.074 87.5311 111.331V112.696C87.5311 112.696 95.3814 109.033 96.4993 113.37C96.4993 113.37 97.1735 114.601 96.7966 115.815C96.7966 115.815 96.9473 119.424 95.5992 120.094C94.251 120.764 90.5164 122.351 89.7669 123.167C89.0175 123.984 82.2599 127.329 82.2599 127.329V120.228L83.0848 117.787L76.0551 119.487L76.4947 130.775C76.4947 130.775 73.4341 132.843 71.0016 133.911C71.0016 133.911 67.9619 140.668 64.5204 142.963C61.0788 145.257 49.2343 160.028 49.2343 160.028L39.86 134.426C39.86 134.426 37.8755 129.46 39.86 126.529C41.8446 123.599 41.4635 121.945 41.4635 121.945C41.4635 121.945 35.9872 115.899 40.5718 105.486C45.1563 95.0695 42.8829 92.7291 42.8829 92.7291L42.8913 92.7332Z" fill="#FAD8BA"/>
</svg>
