<svg width="246" height="236" viewBox="0 0 246 236" fill="none" xmlns="http://www.w3.org/2000/svg">
<path d="M222.887 101.975C223.588 89.8004 223.235 82.0002 221.135 76.3824C219.035 70.7646 222.887 63.2741 222.887 63.2741L219.94 55.0917L193.762 43.4834L180.063 50.8626L161.482 66.4629L157.413 57.9998C152.937 45.0608 143.85 50.3787 143.85 50.3787C134.762 61.2612 151.122 74.2001 151.122 74.2001L138.895 86.7761L123.57 98.0215L158.463 126.817L165.126 116.336C169.674 126.324 193.83 130.069 193.83 130.069C193.83 130.069 200.483 126.948 202.23 124.451C203.982 121.954 199.781 114.149 199.781 114.149C202.931 114.149 201.823 109.088 205.254 107.873C207.436 107.099 205.733 102.604 205.733 102.604C212.033 104.167 221.861 112.281 221.861 112.281C230.29 115.402 222.887 101.98 222.887 101.98V101.975Z" fill="#FDD4B8"/>
<path d="M191.323 45.3407C191.323 45.3407 184.568 50.8811 185.647 58.5893C185.647 58.5893 182.134 58.3474 181.326 55.9376C181.326 55.9376 178.892 61.4781 179.705 63.1668C179.705 63.1668 176.163 62.6152 176.192 58.3474L173.221 61.2361C173.221 61.2361 175.113 57.9845 173.221 56.6006C171.329 55.2167 170.381 62.441 172.07 65.8136C173.758 69.1863 175.921 73.5218 175.921 73.5218L172.07 70.6331C172.07 70.6331 174.842 78.0993 176.729 78.8252C178.617 79.551 174.731 79.7881 174.731 79.7881C174.731 79.7881 178.447 86.2963 180.441 86.7705C182.434 87.2447 178.104 87.3027 178.104 87.3027C178.104 87.3027 180.509 90.1238 179.821 91.106C179.134 92.0883 167.444 92.2093 164.763 86.5092C162.082 80.8091 157.016 56.9344 157.016 56.9344C157.016 56.9344 153.74 46.952 145.229 49.7827C145.229 49.7827 135.542 55.9715 146.221 69.2879L151.123 74.1993L151.2 84.1188L150.169 82.9962C150.169 82.9962 151.084 85.5995 148.495 87.2834C145.906 88.9673 143.477 89.6883 143.477 89.6883C143.477 89.6883 143.908 87.2253 143.584 86.7705C143.259 86.3156 140.347 91.227 138.348 90.7431C138.348 90.7431 138.832 88.5318 138.348 87.3753C138.348 87.3753 134.622 91.5222 132.682 92.1415C130.742 92.7609 130.243 93.1238 130.243 93.1238C130.243 93.1238 131.603 87.956 131.55 87.1866C131.496 86.4172 130.243 87.6657 130.243 87.6657C130.243 87.6657 128.617 73.4009 130.243 69.2298C130.243 69.2298 124.659 63.0458 125.409 56.6199C126.164 50.194 132.401 38.6776 132.401 38.6776L178.563 36.9502L191.323 45.3358V45.3407Z" fill="#431500"/>
<path d="M186.665 0.161567C186.665 0.161567 132.809 -3.31269 125.014 21.9604C125.014 21.9604 123.243 28.2798 125.014 31.7541C125.014 31.7541 98.0863 52.919 95.962 53.8674C93.8378 54.8158 94.3798 66.0951 124.995 58.4401C124.995 58.4401 145.898 48.7867 147.205 45.4576L148.139 43.6285C148.139 43.6285 190.323 55.9433 211.788 56.7755C211.788 56.7755 234.608 87.6423 248.902 79.1453C248.902 79.1453 248.902 70.9145 236.094 55.5126C236.094 55.5126 242.345 52.0625 236.394 46.4834C236.394 46.4834 224.839 22.4491 218.771 13.0134C217.401 10.8843 215.379 9.1569 212.94 8.02462C207.225 5.36812 195.08 0.219632 186.66 0.156727L186.665 0.161567Z" fill="#6C3715"/>
<mask id="mask0_62_505" style="mask-type:luminance" maskUnits="userSpaceOnUse" x="95" y="0" width="154" height="81">
<path d="M186.665 0.161567C186.665 0.161567 132.809 -3.31269 125.014 21.9604C125.014 21.9604 123.243 28.2798 125.014 31.7541C125.014 31.7541 98.0863 52.919 95.962 53.8674C93.8378 54.8158 94.3798 66.0951 124.995 58.4401C124.995 58.4401 145.898 48.7867 147.205 45.4576L148.139 43.6285C148.139 43.6285 190.323 55.9433 211.788 56.7755C211.788 56.7755 234.608 87.6423 248.902 79.1453C248.902 79.1453 248.902 70.9145 236.094 55.5126C236.094 55.5126 242.345 52.0625 236.394 46.4834C236.394 46.4834 224.839 22.4491 218.771 13.0134C217.401 10.8843 215.379 9.1569 212.94 8.02462C207.225 5.36812 195.08 0.219632 186.66 0.156727L186.665 0.161567Z" fill="white"/>
</mask>
<g mask="url(#mask0_62_505)">
<path d="M176.408 -7.57715L148.145 43.627L152.02 66.4129L211.886 68.6727L212.52 -2.49157L176.408 -7.57715Z" fill="#582701"/>
</g>
<path d="M201.59 106.833C201.59 106.833 205.848 112.117 206.095 116.341H207.972C207.972 116.341 207.29 110.651 201.59 106.833Z" fill="#001622"/>
<path d="M206.085 116.343H208.959C209.496 116.343 209.932 116.778 209.932 117.315V130.477H205.117V117.315C205.117 116.778 205.553 116.343 206.09 116.343H206.085Z" fill="#001622"/>
<path d="M210.096 130.476H204.952C204.597 130.476 204.309 130.764 204.309 131.119V131.647C204.309 132.002 204.597 132.29 204.952 132.29H210.096C210.451 132.29 210.739 132.002 210.739 131.647V131.119C210.739 130.764 210.451 130.476 210.096 130.476Z" fill="#CFC744"/>
<path d="M205.28 132.286C205.28 132.286 203.775 150.001 222.153 150.272C240.051 150.538 237.976 133.873 235.784 131.381C232.421 127.554 225.951 126.949 222.037 128.962C218.117 130.975 218.001 135.054 215.795 135.813C213.588 136.573 210.211 135.654 209.819 132.286H205.28Z" fill="#392900"/>
<path d="M114.799 94.325C114.799 94.325 104.497 92.4863 102.891 93.125L112.849 101.032L115.505 94.6396L114.804 94.3202L114.799 94.325Z" fill="#5A2F10"/>
<path d="M207.526 210.761L195.076 216.544L150.234 139.742L162.685 133.965L207.526 210.761Z" fill="#472200"/>
<path d="M92.6679 107.36L81.7129 111.589L69.7949 112.949C69.7949 112.949 64.2932 115.891 60.8528 123.406C57.4124 130.92 6.78887 175.51 3.6872 197.386C0.590364 219.258 -3 239 -3 239H225.899C225.899 239 170.766 158.574 169.121 155.124C167.476 151.674 160.15 134.642 160.15 134.642L92.6679 107.365V107.36Z" fill="#A25B33"/>
<path d="M160.148 134.636L181.763 168.759L210.743 217.8C210.743 217.8 200.291 182.211 200.291 181.359C200.291 180.508 199.696 168.928 197.606 163.819C195.515 158.709 184.444 138.996 175.178 134.636C165.911 130.276 160.148 134.636 160.148 134.636Z" fill="#A25B33"/>
<path d="M169.117 155.125L160.146 134.643L149.578 122.628L112.846 101.037L102.888 93.1307C102.888 93.1307 100.333 91.9259 100.178 92.9953C100.178 92.9953 100.096 94.2437 99.3799 96.6679C98.659 99.0921 91.9427 105.654 92.6588 107.366C93.375 109.079 115.517 143.522 150.023 156.417C150.023 156.417 162.367 160.042 169.117 155.13V155.125Z" fill="#6C3B1B"/>
<path d="M165.103 121.52C165.103 121.52 169.095 120.049 171.157 125.125C173.218 130.201 175.178 136.675 175.178 136.675C175.178 136.675 174.297 149.968 170.958 152.421L160.148 134.643C160.148 134.643 162.974 123.509 165.103 121.525V121.52Z" fill="#6C3B1B"/>
<path d="M127.776 94.9382L116.453 91.2607L123.576 98.0205L127.776 94.9382Z" fill="#EDEDEE"/>
<path d="M158.468 126.816L116.452 91.2607C116.452 91.2607 112.397 97.9528 112.847 101.035C112.847 101.035 124.407 113.084 139.877 121.252C155.342 129.42 160.147 134.641 160.147 134.641C160.147 134.641 163.302 122.858 165.102 121.523L162.992 119.703L158.468 126.821V126.816Z" fill="white"/>
</svg>
