<svg width="240" height="228" viewBox="0 0 240 228" fill="none" xmlns="http://www.w3.org/2000/svg">
<path d="M129.721 81.6602L106.997 91.1471C106.997 91.1471 102.216 95.3788 100.968 96.7618C99.7189 98.1447 72.2658 98.3976 62.1546 114.289C52.0394 130.181 49.8741 136.104 50.7394 145.785C51.6048 155.465 48.9219 230.701 48.9219 230.701H239.94L238.332 159.373C238.332 159.373 241.703 156.263 238.85 145.378C235.997 134.492 233.168 119.513 225.092 113.962C225.092 113.962 215.135 104.123 204.66 107.276L185.18 92.9449L175.685 92.4154L129.729 81.6602H129.721Z" fill="#072F55"/>
<path d="M179.171 76.9586C179.171 76.9586 182.36 78.6774 182.51 81.6566C182.66 84.6359 182.001 95.0434 182.001 95.0434C182.001 95.0434 182.799 104.238 160.047 104.238C137.296 104.238 128.434 83.083 128.434 83.083L131.452 69.6133L179.171 76.9547V76.9586Z" fill="#153F6C"/>
<path d="M178.918 73.1943L179.305 78.971C179.372 79.706 179.408 81.0099 179.36 81.8791L179.262 84.404C179.25 84.7201 179.139 85.0204 178.946 85.2693C177.578 87.0316 171.276 93.4088 154.863 87.9956C135.976 81.7725 159.822 75.5453 159.822 75.5453L178.918 73.1943Z" fill="#FEEEE8"/>
<path d="M133.282 64.9351L134.689 72.1106L151.75 85.9004H164.37L179.796 71.4112L184.004 60.1936C184.004 60.1936 191.95 43.3653 186.106 40.5639C186.106 40.5639 171.151 13.4545 169.045 12.2849C166.943 11.1153 140.066 12.0518 138.897 14.6201C137.727 17.1923 130.718 42.666 130.718 42.666C130.718 42.666 123.708 41.7295 126.277 51.3113C128.849 60.893 132.121 64.3977 132.121 64.3977L133.286 64.9351H133.282Z" fill="#FEEEE8"/>
<path d="M131.289 53.1289V64.5598H133.284V53.8717L131.289 53.1289Z" fill="#B8A388"/>
<path d="M182.503 53.1289V64.5598H180.512V53.8717L182.503 53.1289Z" fill="#B8A388"/>
<path d="M133.359 64.2282L131.057 64.5124C130.668 64.5606 130.391 64.9157 130.439 65.3055L130.923 69.2309C130.972 69.6207 131.327 69.8977 131.717 69.8495L134.018 69.5653C134.408 69.5171 134.685 69.1621 134.637 68.7723L134.152 64.8469C134.104 64.457 133.749 64.18 133.359 64.2282Z" fill="#EAE2CC"/>
<path d="M131.449 69.6174L132.56 73.5331C132.56 73.5331 148.088 86.8764 149.874 87.7061C151.66 88.5359 163.873 90.7486 167.654 86.9673C171.436 83.1859 180.097 73.1933 180.097 73.1933L178.019 71.917L168.295 81.1155C168.295 81.1155 156.097 76.4056 146.677 81.0444L135.152 71.7352L134.255 69.2578L131.445 69.6174H131.449Z" fill="#B8A388"/>
<path d="M183.024 64.4799L180.773 63.9243C180.391 63.8302 180.006 64.0631 179.912 64.4444L178.964 68.2844C178.87 68.6658 179.103 69.0512 179.484 69.1453L181.736 69.7009C182.118 69.795 182.503 69.5622 182.597 69.1808L183.545 65.3408C183.639 64.9594 183.406 64.574 183.024 64.4799Z" fill="#EAE2CC"/>
<path d="M179.446 69.2031L178.023 71.9176L180.102 73.1939L181.698 69.7603L179.446 69.2031Z" fill="#B8A388"/>
<path d="M184.412 15.2367C184.412 15.2367 179.714 -1.46121 151.885 0.103476C124.053 1.66817 128.091 31.8793 128.091 31.8793C128.091 31.8793 127.222 37.9603 126.744 40.1097C126.266 42.2592 129.486 51.7975 129.486 51.7975C130.185 53.9667 139.419 55.891 139.419 55.891C152.672 55.891 154.647 48.842 154.647 48.842H159.195C159.985 52.3862 168.311 55.891 172.633 55.891C176.956 55.891 184.582 51.509 184.886 50.9756C185.19 50.4422 186.099 40.5602 186.099 40.5602C188.201 20.9304 184.412 15.2367 184.412 15.2367ZM144.9 51.4221C138.854 51.4221 133.816 47.0758 135.772 42.2157C136.503 40.4021 138.317 39.2642 140.269 39.3432C144.315 39.5052 151.972 40.0268 151.972 41.631C151.972 43.8081 152.154 51.4221 144.9 51.4221ZM168.915 51.4221C161.661 51.4221 161.843 43.8041 161.843 41.631C161.843 40.0307 169.5 39.5092 173.546 39.3432C175.498 39.2642 177.316 40.4021 178.043 42.2157C179.998 47.0758 174.961 51.4221 168.915 51.4221Z" fill="#153F6C"/>
<path d="M153.294 30.6934H150.702L156.527 14.5067H159.348L165.173 30.6934H162.581L158.005 17.4469H157.878L153.294 30.6934ZM153.729 24.3546H162.138V26.4096H153.729V24.3546Z" fill="white"/>
<path d="M129.024 80.4434C129.024 80.4434 108.367 88.1759 106.996 91.1433C105.625 94.1107 103.57 100.504 103.57 100.504L107.746 103.475L103.57 135.796C103.57 135.796 99.2868 152.245 98.2161 158.867C97.1453 165.49 92.4473 171.899 92.4473 171.899L94.1581 175.316L99.2868 170.832C99.2868 170.832 128.036 116.755 126.693 89.1084L128.431 83.0867L129.024 80.4473V80.4434Z" fill="#B8A388"/>
<path d="M181.996 95.0481C181.996 95.0481 219.13 116.096 227.313 149.046C227.313 149.046 224.31 109.442 182.53 87.9675L182.383 87.9082L182 95.0481H181.996Z" fill="#B8A388"/>
<path d="M161.847 120.06L169.038 142.202H192.323L173.487 155.889L180.683 178.032L161.847 164.345L143.011 178.032L150.203 155.889L131.367 142.202H154.652L161.847 120.06Z" fill="#D2D2C1"/>
<path d="M62.8523 249C97.5647 249 125.705 220.86 125.705 186.147C125.705 151.435 97.5647 123.295 62.8523 123.295C28.1399 123.295 0 151.435 0 186.147C0 220.86 28.1399 249 62.8523 249Z" fill="#670E00"/>
<path d="M62.8539 236.79C90.8232 236.79 113.497 214.116 113.497 186.147C113.497 158.178 90.8232 135.504 62.8539 135.504C34.8845 135.504 12.2109 158.178 12.2109 186.147C12.2109 214.116 34.8845 236.79 62.8539 236.79Z" fill="#F1F6E2"/>
<path d="M62.8543 226.185C84.9666 226.185 102.892 208.26 102.892 186.147C102.892 164.035 84.9666 146.109 62.8543 146.109C40.742 146.109 22.8164 164.035 22.8164 186.147C22.8164 208.26 40.742 226.185 62.8543 226.185Z" fill="#670E00"/>
<path d="M62.8529 217.658C80.256 217.658 94.364 203.55 94.364 186.147C94.364 168.744 80.256 154.636 62.8529 154.636C45.4498 154.636 31.3418 168.744 31.3418 186.147C31.3418 203.55 45.4498 217.658 62.8529 217.658Z" fill="#072F55"/>
<path d="M62.8497 156.131L69.7802 177.452H92.1955L74.0593 190.625L80.9859 211.946L62.8497 198.769L44.7135 211.946L51.644 190.625L33.5078 177.452H55.9232L62.8497 156.131Z" fill="#D2D2C1"/>
</svg>
