<svg width="206" height="236" viewBox="0 0 206 236" fill="none" xmlns="http://www.w3.org/2000/svg">
<path d="M59.6821 129.696C59.321 129.731 59.022 129.991 58.9094 130.363C58.5172 131.664 57.6007 134.759 57.1775 136.778C56.63 139.388 51.1586 140.188 51.1586 140.188C51.1586 140.188 58.7346 139.221 60.816 138.2C62.8973 137.178 67.1222 136.984 59.7986 140.188C52.475 143.391 45.9203 150.645 36.2824 150.738C34.3408 150.758 32.4925 150.75 30.7722 150.727C29.5995 150.711 29.5296 152.594 30.7023 152.668C32.3876 152.777 34.1117 152.757 35.7698 152.532C43.3497 151.495 42.4527 155.076 28.4462 155.643C14.4398 156.21 14.568 159.883 14.1835 160.543C13.7991 161.203 8.5297 161.514 6.28526 159.036C5.22516 157.864 2.938 157.747 0.817819 157.953C-0.168494 158.046 -0.304403 159.533 0.639196 159.852C2.27011 160.396 3.94373 161.172 4.83297 162.225C6.92597 164.702 11.5935 166.473 12.7196 166.589C13.8457 166.706 46.196 170.837 52.9565 167.296C59.6083 163.813 125.082 168.57 127.194 168.721C127.229 168.721 127.264 168.721 127.299 168.721L165.687 166.671L171.147 166.325C176.137 165.917 181.177 166.061 186.101 166.756C188.454 167.086 192.877 167.245 195.269 167.327L205.222 167.257C205.466 167.257 205.54 167.012 205.319 166.939C203.101 166.181 194.127 165.766 189.332 161.91C182.385 156.326 178.793 155.161 175.853 151.693C173.978 149.484 181.593 153.798 188.194 154.427C190.741 154.672 192.473 155.324 193.646 156.035C194.45 156.524 195.351 155.557 194.877 154.707C194.524 154.074 194.058 153.449 193.436 152.924C191.033 150.882 179.733 150.525 178.75 147.403C177.768 144.281 166.635 138.281 166.468 135.039C166.305 131.796 168.27 126.275 162.045 123.153C155.82 120.03 67.7357 128.9 59.6704 129.703L59.6821 129.696Z" fill="#231F20"/>
<path d="M76.8553 151.22C76.8359 151.22 76.8165 151.22 76.7932 151.22C75.6632 151.22 48.8969 147.725 46.1049 165.37C43.5964 181.225 17.0436 229.601 14.073 237.989C13.8478 238.625 14.271 239.313 14.8885 239.313H200.459C201.049 239.313 201.473 238.676 201.29 238.047C198.568 228.568 173.895 167.7 169.767 163.347C165.499 158.85 145.233 151.911 142.69 150.665C142.558 150.599 136.554 148.156 136.411 148.168L76.8515 151.212L76.8553 151.22Z" fill="#231F20"/>
<path d="M88.8036 129.863C88.3764 129.905 88.0425 130.348 88.0192 130.903C87.9338 133.012 87.9804 138.301 90.0695 144.094C92.7721 151.604 97.2804 157.064 100.756 159.565C104.231 162.069 105.392 163.661 107.066 164.457C108.74 165.253 116.207 168.325 122.004 163.549C127.798 158.773 130.372 156.381 131.662 154.901C132.951 153.422 139.773 144.094 139.773 140.681C139.773 137.924 140.278 135.73 140.472 134.988C140.519 134.806 140.531 134.608 140.5 134.418L139.152 125.82C139.067 125.277 138.682 124.9 138.255 124.943L88.8075 129.863H88.8036Z" fill="#6DBE45"/>
<path d="M158.037 108.677C157.241 108.584 156.93 107.496 157.56 106.96C157.905 106.665 158.072 106.355 158.053 106.021C157.579 98.6699 151.448 93.9985 148.644 91.5793C145.84 89.1562 140.598 76.7031 140.124 74.7537C139.651 72.8044 132.576 53.5247 132.102 50.7599C131.682 48.3058 117.913 9.41241 114.795 0.624897C114.523 -0.140078 113.552 -0.221618 113.168 0.48511C107.96 10.0687 97.476 44.7566 94.8277 47.9912C91.9969 51.4511 83.0308 72.552 79.7301 81.1997C77.2876 87.5991 71.4824 100.627 68.6321 106.968C68.4924 107.279 68.205 107.488 67.8866 107.512C39.8466 109.787 20.6406 114.435 20.6406 119.798C20.6406 127.409 59.3243 133.575 107.044 133.575C154.764 133.575 193.447 127.405 193.447 119.798C193.447 115.231 179.507 111.181 158.045 108.677H158.037Z" fill="#231F20"/>
</svg>
