<svg width="252" height="41" viewBox="0 0 252 41" fill="none" xmlns="http://www.w3.org/2000/svg">
<g clip-path="url(#clip0_1_204)">
<path d="M16.91 4.26001C22.79 4.26001 27.77 8.04001 27.77 14.22C27.77 16.92 24.77 19.62 22.13 20.04L15.89 20.58C13.61 20.94 11.33 22.98 11.33 25.5C11.33 27.6 13.61 28.8 15.47 28.8C18.71 28.8 20.27 25.98 23.33 25.98C26.21 25.98 27.11 28.68 27.11 31.14C27.11 35.28 22.37 38.64 18.35 38.64C12.53 38.64 10.37 37.8 8.62998 36.9C1.90998 33 -0.370019 26.82 0.0499806 19.44C0.589981 10.56 9.34998 4.26001 16.91 4.26001Z" fill="#37F5E1"/>
<path d="M33.77 5.93997C35.27 3.35997 37.79 2.15997 40.67 2.15997C43.85 2.15997 46.49 4.19997 46.49 7.43997C46.49 11.22 43.13 14.16 39.47 14.16C37.13 14.16 35.03 12.96 33.89 10.86C33.17 9.47997 32.69 7.85997 33.77 5.93997ZM42.77 17.4C48.59 17.4 48.23 24.06 48.23 28.2V30.78C47.93 35.1 45.65 39.78 40.67 39.78C35.69 39.78 33.23 33.84 33.23 29.52C33.23 23.34 35.87 17.4 42.77 17.4Z" fill="#37F5E1"/>
<path d="M66.8907 31.74C65.0307 34.14 63.1107 37.74 59.5107 37.74C54.8907 37.74 52.9707 29.94 52.9707 26.46C52.9707 16.68 63.3507 8.45996 72.6507 8.45996C83.0907 8.45996 90.4107 18.9 90.4107 28.74C90.4107 33.78 87.2307 39.3 81.6507 39.3C79.1307 39.3 76.7307 38.1 75.1707 36.12L71.9307 31.92C71.2707 31.08 70.1307 30.3 69.0507 30.3C68.2107 30.3 67.4307 31.08 66.8907 31.74Z" fill="#37F5E1"/>
<path d="M97.9107 13.4398C101.691 10.0798 106.911 8.27979 111.891 8.27979C113.871 8.27979 115.731 8.57979 117.531 9.35979C122.571 11.5798 125.991 17.7598 125.991 23.1598C125.991 31.3798 118.071 31.0798 111.651 31.0798C110.091 31.0798 108.531 31.0198 107.031 31.0198H106.551C107.091 32.2798 108.891 33.0598 110.091 33.0598H115.251C116.511 33.2398 116.991 34.0198 116.991 35.3398C116.991 39.4798 111.351 40.3798 108.231 40.3798C98.6907 40.3798 93.4707 30.8398 93.4707 22.2598C93.4707 18.7198 94.9707 15.9598 97.9107 13.4398ZM110.631 22.0798C111.411 22.0798 111.651 21.4198 111.651 20.6398C111.651 19.3798 111.111 18.2398 109.851 18.2398H109.131C108.471 18.5998 108.471 19.3798 108.471 19.8598C108.471 21.2998 109.131 22.0798 110.631 22.0798Z" fill="#37F5E1"/>
<path d="M148.79 0.359985C157.55 0.359985 163.67 7.79998 163.31 17.76C163.13 22.38 162.23 27.06 157.85 29.4C155.99 30.42 154.19 30.96 152.03 30.96C150.65 30.96 149.09 30.72 147.83 30.12L142.31 27.66H142.25C142.13 27.66 142.01 27.66 142.01 27.72C141.71 28.62 141.71 29.64 141.71 30.6C141.71 32.16 142.25 33.72 142.25 35.28C142.25 37.86 140.45 40.38 137.69 40.38C135.53 40.38 134.09 37.74 133.49 36C133.31 35.4 132.71 33.84 132.71 33.66C131.63 30.06 130.67 24.42 130.67 19.8C130.67 9.71998 138.17 0.359985 148.79 0.359985ZM152.93 21.84H153.41C154.43 21.18 154.43 19.38 154.43 18.24C154.43 17.22 154.67 15.6 152.93 15.6C151.19 15.6 151.43 18.06 151.43 19.2V20.46C151.49 21.36 151.79 21.84 152.93 21.84Z" fill="#37F5E1"/>
<path d="M169.19 5.94016C170.69 3.36016 173.21 2.16016 176.09 2.16016C179.27 2.16016 181.91 4.20016 181.91 7.44016C181.91 11.2202 178.55 14.1602 174.89 14.1602C172.55 14.1602 170.45 12.9602 169.31 10.8602C168.59 9.48016 168.11 7.86016 169.19 5.94016ZM178.18 17.4002C184 17.4002 183.64 24.0602 183.64 28.2002V30.7802C183.34 35.1002 181.06 39.7802 176.08 39.7802C171.1 39.7802 168.64 33.8402 168.64 29.5202C168.64 23.3402 171.28 17.4002 178.18 17.4002Z" fill="#37F5E1"/>
<path d="M202.97 8.27979C209.45 8.27979 218.15 13.0798 218.15 20.3998C218.15 23.8198 215.87 26.1598 212.15 25.3798C210.11 24.9598 208.79 24.5398 205.85 25.1998C205.37 25.3198 204.05 25.7998 204.05 26.4598C204.05 27.1798 205.25 27.5398 205.73 27.6598C207.47 28.0198 209.21 28.2598 211.07 28.2598C213.35 28.3198 214.85 30.2998 214.85 32.4598C214.85 37.3798 208.97 39.2398 204.71 39.2398C194.75 39.2398 188.57 32.8198 188.57 22.7398C188.57 14.3398 194.45 8.27979 202.97 8.27979Z" fill="#37F5E1"/>
<path d="M236.39 37.02C235.85 38.1 235.19 39.36 233.57 39.36C230.81 39.36 228.59 38.58 226.85 36.06C223.55 31.44 223.07 25.44 223.07 19.92C223.07 15.96 223.55 12 224.63 8.1C225.35 5.64 227.57 0 230.99 0C233.63 0 234.41 3.54 234.53 5.64L234.89 17.22C234.89 17.94 235.01 19.92 235.91 19.92C236.39 19.92 236.75 19.74 237.17 19.5L241.73 16.62C243.41 15.72 245.63 14.82 247.55 14.82C250.37 14.82 251.87 16.92 251.87 19.5C251.87 21.24 251.21 22.86 249.29 25.02C248.27 26.1 247.07 27.36 247.07 28.8C247.07 29.94 247.79 31.14 248.39 32.04C249.05 33.06 249.77 34.32 249.77 35.82C249.77 37.8 248.45 39.54 246.29 39.54C244.73 39.54 242.87 38.58 241.61 37.74C238.85 35.52 238.43 35.34 238.01 35.34C237.11 35.34 236.75 36.18 236.39 37.02Z" fill="#37F5E1"/>
</g>
<defs>
<clipPath id="clip0_1_204">
<rect width="251.86" height="40.38" fill="white"/>
</clipPath>
</defs>
</svg>
