<svg width="95" height="16" viewBox="0 0 95 16" fill="none" xmlns="http://www.w3.org/2000/svg">
<g clip-path="url(#clip0_1_90)">
<path d="M6.34058 1.59766C8.54558 1.59766 10.4131 3.01516 10.4131 5.33266C10.4131 6.34516 9.28808 7.35766 8.29808 7.51516L5.95808 7.71766C5.10308 7.85266 4.24808 8.61766 4.24808 9.56266C4.24808 10.3502 5.10308 10.8002 5.80058 10.8002C7.01558 10.8002 7.60058 9.74266 8.74808 9.74266C9.82808 9.74266 10.1656 10.7552 10.1656 11.6777C10.1656 13.2302 8.38808 14.4902 6.88058 14.4902C4.69808 14.4902 3.88808 14.1752 3.23558 13.8377C0.715579 12.3752 -0.139421 10.0577 0.018079 7.29016C0.220579 3.96016 3.50558 1.59766 6.34058 1.59766Z" fill="#37F5E1"/>
<path d="M12.6632 2.22805C13.2257 1.26055 14.1707 0.810547 15.2507 0.810547C16.4432 0.810547 17.4332 1.57555 17.4332 2.79055C17.4332 4.20805 16.1732 5.31055 14.8007 5.31055C13.9232 5.31055 13.1357 4.86055 12.7082 4.07305C12.4382 3.55555 12.2582 2.94805 12.6632 2.22805ZM16.0382 6.52555C18.2207 6.52555 18.0857 9.02305 18.0857 10.5755V11.543C17.9732 13.163 17.1182 14.918 15.2507 14.918C13.3832 14.918 12.4607 12.6905 12.4607 11.0705C12.4607 8.75305 13.4507 6.52555 16.0382 6.52555Z" fill="#37F5E1"/>
<path d="M25.0833 11.9029C24.3858 12.8029 23.6658 14.1529 22.3158 14.1529C20.5833 14.1529 19.8633 11.2279 19.8633 9.92285C19.8633 6.25535 23.7558 3.17285 27.2433 3.17285C31.1583 3.17285 33.9033 7.08785 33.9033 10.7779C33.9033 12.6679 32.7108 14.7379 30.6183 14.7379C29.6733 14.7379 28.7733 14.2879 28.1883 13.5454L26.9733 11.9704C26.7258 11.6554 26.2983 11.3629 25.8933 11.3629C25.5783 11.3629 25.2858 11.6554 25.0833 11.9029Z" fill="#37F5E1"/>
<path d="M36.7158 5.04047C38.1333 3.78047 40.0908 3.10547 41.9583 3.10547C42.7008 3.10547 43.3983 3.21797 44.0733 3.51047C45.9633 4.34297 47.2458 6.66047 47.2458 8.68547C47.2458 11.768 44.2758 11.6555 41.8683 11.6555C41.2833 11.6555 40.6983 11.633 40.1358 11.633H39.9558C40.1583 12.1055 40.8333 12.398 41.2833 12.398H43.2183C43.6908 12.4655 43.8708 12.758 43.8708 13.253C43.8708 14.8055 41.7558 15.143 40.5858 15.143C37.0083 15.143 35.0508 11.5655 35.0508 8.34797C35.0508 7.02047 35.6133 5.98547 36.7158 5.04047ZM41.4858 8.28047C41.7783 8.28047 41.8683 8.03297 41.8683 7.74047C41.8683 7.26797 41.6658 6.84047 41.1933 6.84047H40.9233C40.6758 6.97547 40.6758 7.26797 40.6758 7.44797C40.6758 7.98797 40.9233 8.28047 41.4858 8.28047Z" fill="#37F5E1"/>
<path d="M55.797 0.135742C59.082 0.135742 61.377 2.92574 61.242 6.66074C61.1745 8.39324 60.837 10.1482 59.1945 11.0257C58.497 11.4082 57.822 11.6107 57.012 11.6107C56.4945 11.6107 55.9095 11.5207 55.437 11.2957L53.367 10.3732H53.3445C53.2995 10.3732 53.2545 10.3732 53.2545 10.3957C53.142 10.7332 53.142 11.1157 53.142 11.4757C53.142 12.0607 53.3445 12.6457 53.3445 13.2307C53.3445 14.1982 52.6695 15.1432 51.6345 15.1432C50.8245 15.1432 50.2845 14.1532 50.0595 13.5007C49.992 13.2757 49.767 12.6907 49.767 12.6232C49.362 11.2732 49.002 9.15824 49.002 7.42574C49.002 3.64574 51.8145 0.135742 55.797 0.135742ZM57.3495 8.19074H57.5295C57.912 7.94324 57.912 7.26824 57.912 6.84074C57.912 6.45824 58.002 5.85074 57.3495 5.85074C56.697 5.85074 56.787 6.77324 56.787 7.20074V7.67324C56.8095 8.01074 56.922 8.19074 57.3495 8.19074Z" fill="#37F5E1"/>
<path d="M63.4464 2.22805C64.0089 1.26055 64.9539 0.810547 66.0339 0.810547C67.2264 0.810547 68.2164 1.57555 68.2164 2.79055C68.2164 4.20805 66.9564 5.31055 65.5839 5.31055C64.7064 5.31055 63.9189 4.86055 63.4914 4.07305C63.2214 3.55555 63.0414 2.94805 63.4464 2.22805ZM66.8176 6.52555C69.0001 6.52555 68.8651 9.02305 68.8651 10.5755V11.543C68.7526 13.163 67.8976 14.918 66.0301 14.918C64.1626 14.918 63.2401 12.6905 63.2401 11.0705C63.2401 8.75305 64.2301 6.52555 66.8176 6.52555Z" fill="#37F5E1"/>
<path d="M76.1129 3.10547C78.5429 3.10547 81.8054 4.90547 81.8054 7.65047C81.8054 8.93297 80.9504 9.81047 79.5554 9.51797C78.7904 9.36047 78.2954 9.20297 77.1929 9.45047C77.0129 9.49547 76.5179 9.67547 76.5179 9.92297C76.5179 10.193 76.9679 10.328 77.1479 10.373C77.8004 10.508 78.4529 10.598 79.1504 10.598C80.0054 10.6205 80.5679 11.363 80.5679 12.173C80.5679 14.018 78.3629 14.7155 76.7654 14.7155C73.0304 14.7155 70.7129 12.308 70.7129 8.52797C70.7129 5.37797 72.9179 3.10547 76.1129 3.10547Z" fill="#37F5E1"/>
<path d="M88.6454 13.8825C88.4429 14.2875 88.1954 14.76 87.5879 14.76C86.5529 14.76 85.7204 14.4675 85.0679 13.5225C83.8304 11.79 83.6504 9.54 83.6504 7.47C83.6504 5.985 83.8304 4.5 84.2354 3.0375C84.5054 2.115 85.3379 0 86.6204 0C87.6104 0 87.9029 1.3275 87.9479 2.115L88.0829 6.4575C88.0829 6.7275 88.1279 7.47 88.4654 7.47C88.6454 7.47 88.7804 7.4025 88.9379 7.3125L90.6479 6.2325C91.2779 5.895 92.1104 5.5575 92.8304 5.5575C93.8879 5.5575 94.4504 6.345 94.4504 7.3125C94.4504 7.965 94.2029 8.5725 93.4829 9.3825C93.1004 9.7875 92.6504 10.26 92.6504 10.8C92.6504 11.2275 92.9204 11.6775 93.1454 12.015C93.3929 12.3975 93.6629 12.87 93.6629 13.4325C93.6629 14.175 93.1679 14.8275 92.3579 14.8275C91.7729 14.8275 91.0754 14.4675 90.6029 14.1525C89.5679 13.32 89.4104 13.2525 89.2529 13.2525C88.9154 13.2525 88.7804 13.5675 88.6454 13.8825Z" fill="#37F5E1"/>
</g>
<defs>
<clipPath id="clip0_1_90">
<rect width="94.4475" height="15.1425" fill="white"/>
</clipPath>
</defs>
</svg>
